<svg xmlns="http://www.w3.org/2000/svg" viewBox="0 0 1600 1000" role="img" aria-label="Sahar Motors — photo coming soon">
  <defs>
    <linearGradient id="bg" x1="0" y1="0" x2="1" y2="1">
      <stop offset="0" stop-color="#111827"/>
      <stop offset="1" stop-color="#0b2545"/>
    </linearGradient>
  </defs>
  <rect width="1600" height="1000" fill="url(#bg)"/>
  <g transform="translate(536,150) scale(22)" fill="none" stroke="#ffffff" stroke-opacity="0.22" stroke-width="0.9" stroke-linecap="round" stroke-linejoin="round">
    <path d="M19 17h2c.6 0 1-.4 1-1v-3c0-.9-.7-1.7-1.5-1.9C18.7 10.6 16 10 16 10s-1.3-1.4-2.2-2.3c-.5-.4-1.1-.7-1.8-.7H5c-.6 0-1.1.4-1.4.9l-1.4 2.9A3.7 3.7 0 0 0 2 12v4c0 .6.4 1 1 1h2"/>
    <circle cx="7" cy="17" r="2"/>
    <circle cx="17" cy="17" r="2"/>
  </g>
  <text x="800" y="760" text-anchor="middle" font-family="Arial, Helvetica, sans-serif" font-size="92" font-weight="800" letter-spacing="6">
    <tspan fill="#ffffff">SAHAR </tspan><tspan fill="#c8102e">MOTORS</tspan>
  </text>
  <text x="800" y="830" text-anchor="middle" font-family="Arial, Helvetica, sans-serif" font-size="34" font-weight="600" letter-spacing="10" fill="#ffffff" fill-opacity="0.55">PHOTO COMING SOON</text>
</svg>
