<svg xmlns="http://www.w3.org/2000/svg" viewBox="0 0 1200 630" width="1200" height="630" role="img" aria-label="Sahar Motors — Quality Pre-Owned Vehicles in Langley, BC">
  <defs>
    <linearGradient id="bg" x1="0" y1="0" x2="1" y2="1">
      <stop offset="0" stop-color="#0b2545"/>
      <stop offset="1" stop-color="#13315c"/>
    </linearGradient>
  </defs>
  <rect width="1200" height="630" fill="url(#bg)"/>
  <rect x="0" y="618" width="1200" height="12" fill="#1e40af"/>
  <g transform="translate(90,90)">
    <rect width="96" height="96" rx="22" fill="#0b2545" stroke="#ffffff" stroke-opacity="0.15"/>
    <path d="M16 74h64" stroke="#1e40af" stroke-width="6" stroke-linecap="round"/>
    <g transform="translate(22,18) scale(2.16)" fill="none" stroke="#ffffff" stroke-width="1.6" stroke-linecap="round" stroke-linejoin="round">
      <path d="M19 17h2c.6 0 1-.4 1-1v-3c0-.9-.7-1.7-1.5-1.9C18.7 10.6 16 10 16 10s-1.3-1.4-2.2-2.3c-.5-.4-1.1-.7-1.8-.7H5c-.6 0-1.1.4-1.4.9l-1.4 2.9A3.7 3.7 0 0 0 2 12v4c0 .6.4 1 1 1h2"/>
      <circle cx="7" cy="17" r="2"/>
      <circle cx="17" cy="17" r="2"/>
    </g>
  </g>
  <text x="90" y="330" font-family="Arial, Helvetica, sans-serif" font-size="92" font-weight="800" letter-spacing="2">
    <tspan fill="#ffffff">SAHAR </tspan><tspan fill="#9bb5d6">MOTORS</tspan>
  </text>
  <text x="92" y="400" font-family="Arial, Helvetica, sans-serif" font-size="40" font-weight="600" fill="#c3d4e8">Quality Pre-Owned Vehicles &amp; Service</text>
  <text x="92" y="468" font-family="Arial, Helvetica, sans-serif" font-size="32" font-weight="400" fill="#9bb5d6">Langley, British Columbia</text>
</svg>
